<?xml version="1.0" standalone="no"?>
<!DOCTYPE svg PUBLIC "-//W3C//DTD SVG 20010904//EN"
 "http://www.w3.org/TR/2001/REC-SVG-20010904/DTD/svg10.dtd">
<svg version="1.0" xmlns="http://www.w3.org/2000/svg"
 width="490.000000pt" height="490.000000pt" viewBox="0 0 490.000000 490.000000"
 preserveAspectRatio="xMidYMid meet">
<metadata>
Created by potrace 1.11, written by Peter Selinger 2001-2013
</metadata>
<g transform="translate(0.000000,490.000000) scale(0.100000,-0.100000)"
fill="#000000" stroke="none">
<path d="M2387 4895 c-1 -1 -45 -5 -97 -9 -52 -3 -104 -8 -115 -10 -11 -2 -42
-7 -69 -10 -94 -13 -333 -69 -396 -94 -8 -3 -18 -6 -22 -7 -5 -2 -10 -4 -13
-5 -3 -1 -8 -3 -12 -5 -5 -1 -17 -5 -28 -10 -11 -4 -51 -20 -90 -35 -38 -15
-101 -43 -140 -61 -38 -18 -73 -32 -77 -31 -5 1 -8 -3 -8 -8 0 -6 -4 -10 -10
-10 -9 0 -126 -69 -200 -117 -19 -13 -44 -29 -54 -36 -139 -89 -397 -333 -518
-488 -196 -252 -347 -547 -428 -837 -17 -59 -32 -116 -35 -127 -2 -11 -9 -45
-15 -75 -6 -30 -13 -68 -15 -83 -9 -62 -16 -114 -20 -147 -4 -36 -18 -247 -17
-265 3 -53 15 -171 18 -176 2 -3 268 -6 591 -5 l588 1 1 70 c2 94 12 193 24
235 6 19 10 40 10 47 0 9 -86 12 -367 12 -203 0 -403 1 -447 1 l-79 0 7 63
c27 237 128 580 234 792 40 81 149 264 169 283 7 7 13 17 13 20 0 4 10 19 23
32 12 14 42 50 67 80 73 91 150 168 249 251 95 80 234 179 250 179 5 0 11 4
13 8 6 15 190 116 282 154 116 48 284 106 336 114 8 2 35 8 60 14 120 30 284
52 402 54 32 1 58 3 58 6 0 3 19 4 42 2 24 -1 86 -4 138 -6 52 -2 120 -7 150
-10 111 -14 135 -17 151 -22 10 -3 31 -6 48 -9 17 -2 38 -6 48 -9 10 -3 29 -7
43 -10 49 -8 195 -48 213 -58 10 -5 30 -12 43 -14 73 -13 378 -152 494 -225
134 -84 178 -114 263 -182 276 -219 515 -526 638 -817 45 -109 54 -108 13 1
-78 211 -208 444 -353 634 -82 107 -279 311 -376 391 -33 27 -62 51 -65 54 -3
3 -12 10 -21 15 -8 6 -67 44 -130 86 -99 67 -279 165 -389 213 -145 62 -419
144 -540 161 -8 2 -37 6 -65 9 -27 4 -61 9 -75 12 -65 11 -383 26 -393 19z"/>
<path d="M2398 3535 c-2 -1 -28 -6 -58 -9 -105 -13 -115 -15 -185 -37 -38 -12
-74 -23 -80 -24 -44 -11 -228 -101 -279 -137 -243 -173 -406 -388 -496 -653
-16 -47 -27 -85 -25 -85 3 0 0 -11 -5 -25 -23 -60 -34 -317 -18 -440 30 -244
163 -511 342 -690 84 -84 212 -185 234 -185 6 0 12 -4 12 -9 0 -5 8 -11 18
-15 9 -3 37 -18 62 -32 25 -14 50 -27 55 -28 6 -2 21 -8 35 -14 44 -18 85 -34
100 -38 97 -25 176 -42 182 -38 4 3 8 2 8 -3 0 -20 284 -21 404 -1 376 62 692
275 886 598 39 65 110 222 110 244 0 2 -54 4 -119 5 l-120 1 -45 -85 c-103
-195 -243 -332 -441 -436 -96 -49 -221 -92 -311 -105 -98 -14 -302 -9 -384 10
-22 5 -86 19 -100 21 -45 8 -206 83 -280 131 -217 140 -365 361 -416 619 -2
11 -6 52 -9 91 l-5 72 41 4 c22 2 43 0 45 -4 3 -5 10 -6 15 -2 6 3 498 7 1093
8 595 2 1088 6 1094 10 6 3 9 12 7 19 -2 7 -6 44 -9 84 -36 471 -366 918 -806
1093 -30 12 -59 23 -65 25 -5 1 -17 4 -25 8 -18 6 -96 26 -130 32 -14 3 -38 8
-55 11 -30 6 -272 13 -277 9z m282 -240 c100 -18 234 -66 320 -113 134 -74
275 -202 356 -324 46 -69 125 -228 119 -238 -2 -4 -441 -8 -975 -9 -889 -2
-970 -1 -970 14 0 29 67 163 119 237 108 154 227 257 400 343 71 36 175 72
231 81 19 4 55 10 80 14 50 8 266 5 320 -5z"/>
<path d="M3767 2612 c-21 -4 -21 -7 -2 -77 14 -55 21 -107 30 -218 2 -32 6
-61 9 -65 2 -4 167 -7 365 -6 228 1 364 -3 368 -9 6 -10 5 -140 -2 -179 -3
-12 -6 -43 -9 -68 -28 -272 -181 -627 -388 -902 -105 -139 -265 -304 -398
-411 -19 -15 -55 -43 -78 -62 -116 -93 -431 -273 -454 -259 -4 3 -8 0 -8 -5 0
-6 -3 -10 -7 -9 -11 2 -66 -13 -78 -22 -5 -4 -26 -11 -45 -16 -49 -11 -49 -11
-55 -14 -3 -1 -8 -3 -12 -5 -35 -9 -62 -15 -83 -19 -14 -3 -34 -7 -45 -9 -163
-36 -487 -52 -645 -33 -25 3 -70 8 -100 10 -30 2 -62 7 -70 10 -8 2 -33 7 -55
10 -62 8 -92 15 -195 41 -52 14 -106 27 -120 31 -14 3 -32 8 -40 11 -8 3 -19
7 -25 9 -5 1 -50 17 -100 34 -277 99 -595 276 -789 440 -90 76 -207 186 -251
236 -27 31 -55 61 -60 68 -28 30 -135 177 -165 226 -47 77 -123 226 -145 283
-10 26 -20 46 -22 43 -7 -6 73 -206 123 -307 110 -225 267 -442 454 -629 69
-69 141 -139 160 -155 66 -56 256 -195 266 -195 4 0 30 -15 58 -33 28 -19 66
-40 84 -48 17 -8 32 -17 32 -21 0 -5 4 -8 10 -8 5 0 41 -15 80 -34 152 -74
384 -152 565 -190 165 -35 323 -50 505 -50 257 1 439 26 695 98 6 2 24 7 40
11 17 5 77 26 135 47 722 270 1270 840 1493 1553 28 90 73 286 81 358 3 26 8
66 11 90 9 71 14 317 8 386 l-5 66 -552 0 c-304 0 -560 -1 -569 -3z"/>
</g>
</svg>
